REM DIRINDEX 1\6,1\2\7,1\2\8,1\2\9,1\3\10,1\3\11,1\4\12,1\4\13,1\4\14,1\5\15,1\5\16,1\5\17
REM DIRNAME cjc041,folder01,folder02,folder03,folder04,folder05,folder06,folder07,folder08,folder09,folder10,folder11,folder12,folder13,folder14,folder15,folder16
TITLE ""
FILE "3Q_t2_0876-0891.mp3" MP3
  TRACK 01 AUDIO
    TITLE "7:cjc041_6047"
    INDEX 01 00:00:00
  TRACK 02 AUDIO
    TITLE "0:"
    INDEX 01 00:01:05
  TRACK 03 AUDIO
    TITLE "8:cjc041_6048"
    INDEX 01 00:01:56
  TRACK 04 AUDIO
    TITLE "0:"
    INDEX 01 00:03:19
  TRACK 05 AUDIO
    TITLE "9:cjc041_6049"
    INDEX 01 00:03:70
  TRACK 06 AUDIO
    TITLE "0:"
    INDEX 01 00:05:10
  TRACK 07 AUDIO
    TITLE "7:cjc041_6050"
    INDEX 01 00:06:69
  TRACK 08 AUDIO
    TITLE "0:"
    INDEX 01 00:08:15
  TRACK 09 AUDIO
    TITLE "8:cjc041_6051"
    INDEX 01 00:08:58
  TRACK 10 AUDIO
    TITLE "0:"
    INDEX 01 00:10:00
  TRACK 11 AUDIO
    TITLE "9:cjc041_6052"
    INDEX 01 00:10:53
  TRACK 12 AUDIO
    TITLE "0:"
    INDEX 01 00:12:05
  TRACK 13 AUDIO
    TITLE "7:cjc041_6053"
    INDEX 01 00:13:53
  TRACK 14 AUDIO
    TITLE "0:"
    INDEX 01 00:15:09
  TRACK 15 AUDIO
    TITLE "8:cjc041_6054"
    INDEX 01 00:15:56
  TRACK 16 AUDIO
    TITLE "0:"
    INDEX 01 00:18:15
  TRACK 17 AUDIO
    TITLE "9:cjc041_6055"
    INDEX 01 00:18:64
  TRACK 18 AUDIO
    TITLE "0:"
    INDEX 01 00:20:18
  TRACK 19 AUDIO
    TITLE "7:cjc041_6056"
    INDEX 01 00:21:70
  TRACK 20 AUDIO
    TITLE "0:"
    INDEX 01 00:23:32
  TRACK 21 AUDIO
    TITLE "8:cjc041_6057"
    INDEX 01 00:24:06
  TRACK 22 AUDIO
    TITLE "0:"
    INDEX 01 00:25:35
  TRACK 23 AUDIO
    TITLE "9:cjc041_6058"
    INDEX 01 00:26:13
  TRACK 24 AUDIO
    TITLE "0:"
    INDEX 01 00:27:57
  TRACK 25 AUDIO
    TITLE "7:cjc041_6059"
    INDEX 01 00:29:34
  TRACK 26 AUDIO
    TITLE "0:"
    INDEX 01 00:30:50
  TRACK 27 AUDIO
    TITLE "8:cjc041_6060"
    INDEX 01 00:31:26
  TRACK 28 AUDIO
    TITLE "0:"
    INDEX 01 00:32:37
  TRACK 29 AUDIO
    TITLE "9:cjc041_6061"
    INDEX 01 00:33:17
  TRACK 30 AUDIO
    TITLE "0:"
    INDEX 01 00:34:36
  TRACK 31 AUDIO
    TITLE "7:cjc041_6062"
    INDEX 01 00:36:19
  TRACK 32 AUDIO
    TITLE "0:"
    INDEX 01 00:37:20
  TRACK 33 AUDIO
    TITLE "8:cjc041_6063"
    INDEX 01 00:37:71
  TRACK 34 AUDIO
    TITLE "0:"
    INDEX 01 00:38:69
  TRACK 35 AUDIO
    TITLE "9:cjc041_6064"
    INDEX 01 00:39:45
  TRACK 36 AUDIO
    TITLE "0:"
    INDEX 01 00:40:50
  TRACK 37 AUDIO
    TITLE "7:cjc041_6065"
    INDEX 01 00:42:31
  TRACK 38 AUDIO
    TITLE "0:"
    INDEX 01 00:43:35
  TRACK 39 AUDIO
    TITLE "8:cjc041_6066"
    INDEX 01 00:44:09
  TRACK 40 AUDIO
    TITLE "0:"
    INDEX 01 00:45:16
  TRACK 41 AUDIO
    TITLE "9:cjc041_6067"
    INDEX 01 00:45:63
  TRACK 42 AUDIO
    TITLE "0:"
    INDEX 01 00:46:66
  TRACK 43 AUDIO
    TITLE "7:cjc041_6068"
    INDEX 01 00:48:42
  TRACK 44 AUDIO
    TITLE "0:"
    INDEX 01 00:49:63
  TRACK 45 AUDIO
    TITLE "8:cjc041_6069"
    INDEX 01 00:50:39
  TRACK 46 AUDIO
    TITLE "0:"
    INDEX 01 00:51:50
  TRACK 47 AUDIO
    TITLE "9:cjc041_6070"
    INDEX 01 00:52:26
  TRACK 48 AUDIO
    TITLE "0:"
    INDEX 01 00:53:49
  TRACK 49 AUDIO
    TITLE "7:cjc041_6071"
    INDEX 01 00:55:28
  TRACK 50 AUDIO
    TITLE "0:"
    INDEX 01 00:56:47
  TRACK 51 AUDIO
    TITLE "8:cjc041_6072"
    INDEX 01 00:57:31
  TRACK 52 AUDIO
    TITLE "0:"
    INDEX 01 00:58:42
  TRACK 53 AUDIO
    TITLE "9:cjc041_6073"
    INDEX 01 00:59:18
  TRACK 54 AUDIO
    TITLE "0:"
    INDEX 01 01:00:39
  TRACK 55 AUDIO
    TITLE "7:cjc041_6074"
    INDEX 01 01:02:22
  TRACK 56 AUDIO
    TITLE "0:"
    INDEX 01 01:03:43
  TRACK 57 AUDIO
    TITLE "8:cjc041_6075"
    INDEX 01 01:04:21
  TRACK 58 AUDIO
    TITLE "0:"
    INDEX 01 01:06:55
  TRACK 59 AUDIO
    TITLE "9:cjc041_6076"
    INDEX 01 01:07:31
  TRACK 60 AUDIO
    TITLE "0:"
    INDEX 01 01:08:48
  TRACK 61 AUDIO
    TITLE "7:cjc041_6077"
    INDEX 01 01:10:35
  TRACK 62 AUDIO
    TITLE "0:"
    INDEX 01 01:11:51
  TRACK 63 AUDIO
    TITLE "8:cjc041_6078"
    INDEX 01 01:12:28
  TRACK 64 AUDIO
    TITLE "0:"
    INDEX 01 01:13:32
  TRACK 65 AUDIO
    TITLE "9:cjc041_6079"
    INDEX 01 01:14:08
  TRACK 66 AUDIO
    TITLE "0:"
    INDEX 01 01:15:27
  TRACK 67 AUDIO
    TITLE "7:cjc041_6080"
    INDEX 01 01:17:06
  TRACK 68 AUDIO
    TITLE "0:"
    INDEX 01 01:18:27
  TRACK 69 AUDIO
    TITLE "8:cjc041_6081"
    INDEX 01 01:19:03
  TRACK 70 AUDIO
    TITLE "0:"
    INDEX 01 01:20:16
  TRACK 71 AUDIO
    TITLE "9:cjc041_6082"
    INDEX 01 01:20:71
  TRACK 72 AUDIO
    TITLE "0:"
    INDEX 01 01:22:19
  TRACK 73 AUDIO
    TITLE "7:cjc041_6083"
    INDEX 01 01:24:02
  TRACK 74 AUDIO
    TITLE "0:"
    INDEX 01 01:25:31
  TRACK 75 AUDIO
    TITLE "8:cjc041_6084"
    INDEX 01 01:26:07
  TRACK 76 AUDIO
    TITLE "0:"
    INDEX 01 01:28:61
  TRACK 77 AUDIO
    TITLE "9:cjc041_6085"
    INDEX 01 01:29:39
  TRACK 78 AUDIO
    TITLE "0:"
    INDEX 01 01:30:62
  TRACK 79 AUDIO
    TITLE "7:cjc041_6086"
    INDEX 01 01:32:41
  TRACK 80 AUDIO
    TITLE "0:"
    INDEX 01 01:33:64
  TRACK 81 AUDIO
    TITLE "8:cjc041_6087"
    INDEX 01 01:34:38
  TRACK 82 AUDIO
    TITLE "0:"
    INDEX 01 01:36:52
  TRACK 83 AUDIO
    TITLE "9:cjc041_6088"
    INDEX 01 01:37:30
  TRACK 84 AUDIO
    TITLE "0:"
    INDEX 01 01:38:53
  TRACK 85 AUDIO
    TITLE "7:cjc041_6089"
    INDEX 01 01:40:35
  TRACK 86 AUDIO
    TITLE "0:"
    INDEX 01 01:41:56
  TRACK 87 AUDIO
    TITLE "8:cjc041_6090"
    INDEX 01 01:42:33
  TRACK 88 AUDIO
    TITLE "0:"
    INDEX 01 01:45:00
  TRACK 89 AUDIO
    TITLE "9:cjc041_6091"
    INDEX 01 01:45:53
  TRACK 90 AUDIO
    TITLE "0:"
    INDEX 01 01:46:74
  TRACK 91 AUDIO
    TITLE "7:cjc041_6092"
    INDEX 01 01:48:54
  TRACK 92 AUDIO
    TITLE "0:"
    INDEX 01 01:49:71
  TRACK 93 AUDIO
    TITLE "8:cjc041_6093"
    INDEX 01 01:50:39
  TRACK 94 AUDIO
    TITLE "0:"
    INDEX 01 01:51:66
  TRACK 95 AUDIO
    TITLE "9:cjc041_6094"
    INDEX 01 01:52:42
  TRACK 96 AUDIO
    TITLE "0:"
    INDEX 01 01:53:61
